<svg width="1120" height="310" viewBox="0 0 1120 310" fill="none" xmlns="http://www.w3.org/2000/svg">
<mask id="mask0" mask-type="alpha" maskUnits="userSpaceOnUse" x="0" y="0" width="1120" height="310">
<rect width="1120" height="310" fill="#C4C4C4"/>
</mask>
<g mask="url(#mask0)">
<path d="M281.879 248.715L324.945 21.0781H390.644L319.672 341H253.314L201.239 126.986L149.164 341H82.8066L11.835 21.0781H77.5332L120.819 248.275L173.554 21.0781H229.364L281.879 248.715ZM405.365 219.931C405.365 196.347 409.906 175.326 418.988 156.869C428.07 138.412 441.107 124.13 458.1 114.022C475.238 103.915 495.087 98.8613 517.646 98.8613C549.726 98.8613 575.873 108.676 596.088 128.305C616.449 147.934 627.802 174.594 630.146 208.285L630.585 224.545C630.585 261.02 620.404 290.316 600.043 312.436C579.682 334.408 552.362 345.395 518.085 345.395C483.808 345.395 456.415 334.408 435.907 312.436C415.546 290.463 405.365 260.58 405.365 222.787V219.931ZM468.866 224.545C468.866 247.104 473.114 264.389 481.61 276.4C490.106 288.266 502.265 294.198 518.085 294.198C533.466 294.198 545.478 288.339 554.12 276.62C562.763 264.755 567.084 245.858 567.084 219.931C567.084 197.812 562.763 180.673 554.12 168.515C545.478 156.356 533.319 150.277 517.646 150.277C502.118 150.277 490.106 156.356 481.61 168.515C473.114 180.526 468.866 199.203 468.866 224.545ZM803.29 162.802C794.647 161.63 787.03 161.044 780.438 161.044C756.415 161.044 740.668 169.174 733.197 185.434V341H669.696V103.256H729.682L731.439 131.601C744.184 109.774 761.835 98.8613 784.394 98.8613C791.425 98.8613 798.017 99.8135 804.169 101.718L803.29 162.802ZM920.404 245.639L897.553 268.49V341H834.052V3.5H897.553V190.487L909.857 174.667L970.722 103.256H1046.97L961.054 202.353L1054.44 341H981.488L920.404 245.639ZM1077.73 309.799C1077.73 299.691 1081.1 291.488 1087.84 285.189C1094.72 278.891 1103.29 275.741 1113.54 275.741C1123.94 275.741 1132.51 278.891 1139.25 285.189C1146.14 291.488 1149.58 299.691 1149.58 309.799C1149.58 319.76 1146.21 327.89 1139.47 334.188C1132.73 340.341 1124.09 343.417 1113.54 343.417C1103.14 343.417 1094.57 340.341 1087.84 334.188C1081.1 327.89 1077.73 319.76 1077.73 309.799Z" fill="white"/>
</g>
</svg>
