<svg width="954" height="298" viewBox="0 0 954 298" fill="none" xmlns="http://www.w3.org/2000/svg">
<mask id="mask0" mask-type="alpha" maskUnits="userSpaceOnUse" x="0" y="0" width="954" height="298">
<rect width="954" height="298" fill="#E94949"/>
</mask>
<g mask="url(#mask0)">
<path d="M270.778 245.715L313.845 18.0781H379.543L308.571 338H242.214L190.139 123.986L138.063 338H71.7061L0.734375 18.0781H66.4326L109.719 245.275L162.453 18.0781H218.264L270.778 245.715Z" fill="white"/>
<path d="M473.146 126.184C489.992 105.969 511.159 95.8613 536.647 95.8613C588.21 95.8613 614.357 125.817 615.09 185.729V338H551.589V187.487C551.589 173.864 548.659 163.83 542.8 157.385C536.94 150.793 527.199 147.497 513.576 147.497C494.973 147.497 481.496 154.675 473.146 169.03V338H409.646V0.5H473.146V126.184Z" fill="white"/>
<path d="M653.103 216.931C653.103 193.347 657.644 172.326 666.726 153.869C675.808 135.412 688.845 121.13 705.837 111.022C722.976 100.915 742.824 95.8613 765.383 95.8613C797.463 95.8613 823.61 105.676 843.825 125.305C864.187 144.934 875.539 171.594 877.883 205.285L878.322 221.545C878.322 258.02 868.142 287.316 847.78 309.436C827.419 331.408 800.1 342.395 765.822 342.395C731.545 342.395 704.152 331.408 683.645 309.436C663.283 287.463 653.103 257.58 653.103 219.787V216.931ZM716.604 221.545C716.604 244.104 720.852 261.389 729.348 273.4C737.844 285.266 750.002 291.198 765.822 291.198C781.203 291.198 793.215 285.339 801.857 273.62C810.5 261.755 814.821 242.858 814.821 216.931C814.821 194.812 810.5 177.673 801.857 165.515C793.215 153.356 781.057 147.277 765.383 147.277C749.855 147.277 737.844 153.356 729.348 165.515C720.852 177.526 716.604 196.203 716.604 221.545Z" fill="white"/>
<path d="M920.729 306.799C920.729 296.691 924.099 288.488 930.837 282.189C937.722 275.891 946.291 272.741 956.545 272.741C966.945 272.741 975.515 275.891 982.253 282.189C989.138 288.488 992.58 296.691 992.58 306.799C992.58 316.76 989.211 324.89 982.473 331.188C975.734 337.341 967.092 340.417 956.545 340.417C946.145 340.417 937.575 337.341 930.837 331.188C924.099 324.89 920.729 316.76 920.729 306.799Z" fill="white"/>
</g>
</svg>
