<svg width="963" height="306" viewBox="0 0 963 306" fill="none" xmlns="http://www.w3.org/2000/svg">
<path d="M270.358 245.29L313.475 17.5835H379.249L308.195 337.604H241.761L189.625 123.524L137.489 337.604H71.0543L0 17.5835H65.7747L109.111 244.851L161.907 17.5835H217.782L270.358 245.29Z" fill="white"/>
<path d="M472.962 125.722C489.827 105.501 511.019 95.3907 536.537 95.3907C588.159 95.3907 614.337 125.356 615.07 185.287V337.604H551.496V187.045C551.496 173.418 548.563 163.38 542.696 156.933C536.83 150.339 527.078 147.042 513.439 147.042C494.813 147.042 481.321 154.222 472.962 168.582V337.604H409.387V0H472.962V125.722Z" fill="white"/>
<path d="M653.127 216.497C653.127 192.906 657.674 171.879 666.766 153.416C675.859 134.954 688.911 120.667 705.923 110.557C723.082 100.446 742.954 95.3907 765.538 95.3907C797.656 95.3907 823.834 105.208 844.072 124.843C864.457 144.478 875.823 171.147 878.169 204.848L878.609 221.113C878.609 257.599 868.417 286.905 848.032 309.031C827.647 331.01 800.296 342 765.978 342C731.661 342 704.237 331.01 683.705 309.031C663.32 287.051 653.127 257.159 653.127 219.355V216.497ZM716.702 221.113C716.702 243.679 720.955 260.969 729.461 272.985C737.967 284.853 750.14 290.788 765.978 290.788C781.377 290.788 793.403 284.927 802.055 273.204C810.708 261.335 815.034 242.433 815.034 216.497C815.034 194.371 810.708 177.228 802.055 165.066C793.403 152.904 781.23 146.823 765.538 146.823C749.993 146.823 737.967 152.904 729.461 165.066C720.955 177.081 716.702 195.764 716.702 221.113Z" fill="white"/>
<path d="M921.066 306.393C921.066 296.283 924.439 288.077 931.185 281.776C938.078 275.476 946.657 272.325 956.923 272.325C967.335 272.325 975.915 275.476 982.661 281.776C989.554 288.077 993 296.283 993 306.393C993 316.357 989.627 324.49 982.881 330.79C976.135 336.945 967.482 340.022 956.923 340.022C946.51 340.022 937.931 336.945 931.185 330.79C924.439 324.49 921.066 316.357 921.066 306.393Z" fill="white"/>
</svg>
