<svg width="1091" height="299" viewBox="0 0 1091 299" fill="none" xmlns="http://www.w3.org/2000/svg">
<mask id="mask0" mask-type="alpha" maskUnits="userSpaceOnUse" x="0" y="0" width="1091" height="299">
<rect width="1091" height="299" fill="#C4C4C4"/>
</mask>
<g mask="url(#mask0)">
<path d="M270.91 245.715L313.977 18.0781H379.675L308.703 338H242.346L190.271 123.986L138.195 338H71.8379L0.866211 18.0781H66.5645L109.851 245.275L162.585 18.0781H218.396L270.91 245.715Z" fill="white"/>
<path d="M473.278 126.184C490.124 105.969 511.291 95.8613 536.779 95.8613C588.342 95.8613 614.489 125.817 615.222 185.729V338H551.721V187.487C551.721 173.864 548.791 163.83 542.932 157.385C537.072 150.793 527.331 147.497 513.708 147.497C495.104 147.497 481.628 154.675 473.278 169.03V338H409.777V0.5H473.278V126.184Z" fill="white"/>
<path d="M800.891 338C797.961 332.287 795.837 325.183 794.519 316.687C779.138 333.825 759.143 342.395 734.533 342.395C711.242 342.395 691.906 335.656 676.525 322.18C661.291 308.703 653.674 291.711 653.674 271.203C653.674 246.008 662.976 226.672 681.579 213.195C700.329 199.719 727.355 192.907 762.658 192.761H791.882V179.138C791.882 168.151 789.025 159.362 783.312 152.771C777.746 146.179 768.884 142.883 756.726 142.883C746.032 142.883 737.609 145.446 731.457 150.573C725.451 155.7 722.448 162.731 722.448 171.667H658.947C658.947 157.897 663.195 145.153 671.691 133.435C680.188 121.716 692.199 112.561 707.727 105.969C723.254 99.2305 740.686 95.8613 760.021 95.8613C789.318 95.8613 812.536 103.259 829.675 118.054C846.96 132.702 855.603 153.356 855.603 180.017V283.068C855.749 305.627 858.898 322.692 865.051 334.265V338H800.891ZM748.376 293.835C757.751 293.835 766.394 291.784 774.304 287.683C782.214 283.435 788.073 277.795 791.882 270.764V229.895H768.151C736.364 229.895 719.445 240.881 717.395 262.854L717.175 266.589C717.175 274.499 719.958 281.018 725.524 286.145C731.091 291.271 738.708 293.835 748.376 293.835Z" fill="white"/>
<path d="M980.407 41.8086V100.256H1021.06V146.838H980.407V265.49C980.407 274.279 982.092 280.578 985.461 284.387C988.83 288.195 995.275 290.1 1004.8 290.1C1011.83 290.1 1018.05 289.587 1023.47 288.562V336.682C1011.02 340.49 998.205 342.395 985.021 342.395C940.49 342.395 917.785 319.909 916.906 274.938V146.838H882.189V100.256H916.906V41.8086H980.407Z" fill="white"/>
<path d="M1059.73 306.799C1059.73 296.691 1063.1 288.488 1069.84 282.189C1076.72 275.891 1085.29 272.741 1095.54 272.741C1105.94 272.741 1114.51 275.891 1121.25 282.189C1128.14 288.488 1131.58 296.691 1131.58 306.799C1131.58 316.76 1128.21 324.89 1121.47 331.188C1114.73 337.341 1106.09 340.417 1095.54 340.417C1085.14 340.417 1076.57 337.341 1069.84 331.188C1063.1 324.89 1059.73 316.76 1059.73 306.799Z" fill="white"/>
</g>
</svg>
