<svg width="1110" height="310" viewBox="0 0 1110 310" fill="none" xmlns="http://www.w3.org/2000/svg">
<mask id="mask0" mask-type="alpha" maskUnits="userSpaceOnUse" x="0" y="0" width="1110" height="310">
<rect width="1110" height="310" fill="#C4C4C4"/>
</mask>
<g mask="url(#mask0)">
<path d="M278.91 248.715L321.977 21.0781H387.675L316.703 341H250.346L198.271 126.986L146.195 341H79.8379L8.86621 21.0781H74.5645L117.851 248.275L170.585 21.0781H226.396L278.91 248.715ZM481.278 129.184C498.124 108.969 519.291 98.8613 544.779 98.8613C596.342 98.8613 622.489 128.817 623.222 188.729V341H559.721V190.487C559.721 176.864 556.791 166.83 550.932 160.385C545.072 153.793 535.331 150.497 521.708 150.497C503.104 150.497 489.628 157.675 481.278 172.03V341H417.777V3.5H481.278V129.184ZM808.891 341C805.961 335.287 803.837 328.183 802.519 319.687C787.138 336.825 767.143 345.395 742.533 345.395C719.242 345.395 699.906 338.656 684.525 325.18C669.291 311.703 661.674 294.711 661.674 274.203C661.674 249.008 670.976 229.672 689.579 216.195C708.329 202.719 735.355 195.907 770.658 195.761H799.882V182.138C799.882 171.151 797.025 162.362 791.312 155.771C785.746 149.179 776.884 145.883 764.726 145.883C754.032 145.883 745.609 148.446 739.457 153.573C733.451 158.7 730.448 165.731 730.448 174.667H666.947C666.947 160.897 671.195 148.153 679.691 136.435C688.188 124.716 700.199 115.561 715.727 108.969C731.254 102.23 748.686 98.8613 768.021 98.8613C797.318 98.8613 820.536 106.259 837.675 121.054C854.96 135.702 863.603 156.356 863.603 183.017V286.068C863.749 308.627 866.898 325.692 873.051 337.265V341H808.891ZM756.376 296.835C765.751 296.835 774.394 294.784 782.304 290.683C790.214 286.435 796.073 280.795 799.882 273.764V232.895H776.151C744.364 232.895 727.445 243.881 725.395 265.854L725.175 269.589C725.175 277.499 727.958 284.018 733.524 289.145C739.091 294.271 746.708 296.835 756.376 296.835ZM988.407 44.8086V103.256H1029.06V149.838H988.407V268.49C988.407 277.279 990.092 283.578 993.461 287.387C996.83 291.195 1003.28 293.1 1012.8 293.1C1019.83 293.1 1026.05 292.587 1031.47 291.562V339.682C1019.02 343.49 1006.21 345.395 993.021 345.395C948.49 345.395 925.785 322.909 924.906 277.938V149.838H890.189V103.256H924.906V44.8086H988.407ZM1067.73 309.799C1067.73 299.691 1071.1 291.488 1077.84 285.189C1084.72 278.891 1093.29 275.741 1103.54 275.741C1113.94 275.741 1122.51 278.891 1129.25 285.189C1136.14 291.488 1139.58 299.691 1139.58 309.799C1139.58 319.76 1136.21 327.89 1129.47 334.188C1122.73 340.341 1114.09 343.417 1103.54 343.417C1093.14 343.417 1084.57 340.341 1077.84 334.188C1071.1 327.89 1067.73 319.76 1067.73 309.799Z" fill="white"/>
</g>
</svg>
