<svg width="970" height="310" viewBox="0 0 970 310" fill="none" xmlns="http://www.w3.org/2000/svg">
<mask id="mask0" mask-type="alpha" maskUnits="userSpaceOnUse" x="0" y="0" width="970" height="310">
<rect width="970" height="310" fill="#C4C4C4"/>
</mask>
<g mask="url(#mask0)">
<path d="M277.777 248.715L320.844 21.0781H386.542L315.57 341H249.213L197.138 126.986L145.062 341H78.7051L7.7334 21.0781H73.4316L116.718 248.275L169.452 21.0781H225.263L277.777 248.715ZM480.146 129.184C496.991 108.969 518.158 98.8613 543.646 98.8613C595.209 98.8613 621.356 128.817 622.089 188.729V341H558.588V190.487C558.588 176.864 555.658 166.83 549.799 160.385C543.939 153.793 534.198 150.497 520.575 150.497C501.972 150.497 488.495 157.675 480.146 172.03V341H416.645V3.5H480.146V129.184ZM660.102 219.931C660.102 196.347 664.643 175.326 673.725 156.869C682.807 138.412 695.844 124.13 712.836 114.022C729.975 103.915 749.823 98.8613 772.382 98.8613C804.462 98.8613 830.609 108.676 850.824 128.305C871.186 147.934 882.538 174.594 884.882 208.285L885.321 224.545C885.321 261.02 875.141 290.316 854.779 312.436C834.418 334.408 807.099 345.395 772.821 345.395C738.544 345.395 711.151 334.408 690.644 312.436C670.282 290.463 660.102 260.58 660.102 222.787V219.931ZM723.603 224.545C723.603 247.104 727.851 264.389 736.347 276.4C744.843 288.266 757.001 294.198 772.821 294.198C788.202 294.198 800.214 288.339 808.856 276.62C817.499 264.755 821.82 245.858 821.82 219.931C821.82 197.812 817.499 180.673 808.856 168.515C800.214 156.356 788.056 150.277 772.382 150.277C756.854 150.277 744.843 156.356 736.347 168.515C727.851 180.526 723.603 199.203 723.603 224.545ZM927.729 309.799C927.729 299.691 931.098 291.488 937.836 285.189C944.721 278.891 953.29 275.741 963.544 275.741C973.944 275.741 982.514 278.891 989.252 285.189C996.137 291.488 999.579 299.691 999.579 309.799C999.579 319.76 996.21 327.89 989.472 334.188C982.733 340.341 974.091 343.417 963.544 343.417C953.144 343.417 944.574 340.341 937.836 334.188C931.098 327.89 927.729 319.76 927.729 309.799Z" fill="white"/>
</g>
</svg>
