<svg width="1099" height="297" viewBox="0 0 1099 297" fill="none" xmlns="http://www.w3.org/2000/svg">
<mask id="mask0" mask-type="alpha" maskUnits="userSpaceOnUse" x="0" y="0" width="1099" height="297">
<rect width="1099" height="297" fill="#C4C4C4"/>
</mask>
<g mask="url(#mask0)">
<path d="M270.879 245.715L313.945 18.0781H379.644L308.672 338H242.314L190.239 123.986L138.164 338H71.8066L0.834961 18.0781H66.5332L109.819 245.275L162.554 18.0781H218.364L270.879 245.715Z" fill="white"/>
<path d="M394.365 216.931C394.365 193.347 398.906 172.326 407.988 153.869C417.07 135.412 430.107 121.13 447.1 111.022C464.238 100.915 484.087 95.8613 506.646 95.8613C538.726 95.8613 564.873 105.676 585.088 125.305C605.449 144.934 616.802 171.594 619.146 205.285L619.585 221.545C619.585 258.02 609.404 287.316 589.043 309.436C568.682 331.408 541.362 342.395 507.085 342.395C472.808 342.395 445.415 331.408 424.907 309.436C404.546 287.463 394.365 257.58 394.365 219.787V216.931ZM457.866 221.545C457.866 244.104 462.114 261.389 470.61 273.4C479.106 285.266 491.265 291.198 507.085 291.198C522.466 291.198 534.478 285.339 543.12 273.62C551.763 261.755 556.084 242.858 556.084 216.931C556.084 194.812 551.763 177.673 543.12 165.515C534.478 153.356 522.319 147.277 506.646 147.277C491.118 147.277 479.106 153.356 470.61 165.515C462.114 177.526 457.866 196.203 457.866 221.545Z" fill="white"/>
<path d="M792.29 159.802C783.647 158.63 776.03 158.044 769.438 158.044C745.415 158.044 729.668 166.174 722.197 182.434V338H658.696V100.256H718.682L720.439 128.601C733.184 106.774 750.835 95.8613 773.394 95.8613C780.425 95.8613 787.017 96.8135 793.169 98.7178L792.29 159.802Z" fill="white"/>
<path d="M909.404 242.639L886.553 265.49V338H823.052V0.5H886.553V187.487L898.857 171.667L959.722 100.256H1035.97L950.054 199.353L1043.44 338H970.488L909.404 242.639Z" fill="white"/>
<path d="M1066.73 306.799C1066.73 296.691 1070.1 288.488 1076.84 282.189C1083.72 275.891 1092.29 272.741 1102.54 272.741C1112.94 272.741 1121.51 275.891 1128.25 282.189C1135.14 288.488 1138.58 296.691 1138.58 306.799C1138.58 316.76 1135.21 324.89 1128.47 331.188C1121.73 337.341 1113.09 340.417 1102.54 340.417C1092.14 340.417 1083.57 337.341 1076.84 331.188C1070.1 324.89 1066.73 316.76 1066.73 306.799Z" fill="white"/>
</g>
</svg>
